<svg width="20" height="20" viewBox="0 0 160 160" xmlns="http://www.w3.org/2000/svg"><path d="M62.857 0L37.143 11.429l25.714 11.428L88.571 11.43zM5.714 5.714A5.711 5.711 0 0 0 0 11.43a5.711 5.711 0 0 0 5.714 5.714h17.143a5.711 5.711 0 0 0 5.714-5.714 5.711 5.711 0 0 0-5.714-5.715zm91.429 0V40H160V22.857c0-9.453-7.69-17.143-17.143-17.143zM34.286 17.143v24.855a5.716 5.716 0 0 0 3.393 5.223L60 57.143V28.57zm57.143 0L65.714 28.57v28.572l22.322-9.922a5.716 5.716 0 0 0 3.393-5.223zm14.285 0A2.855 2.855 0 0 1 108.571 20v5.714a2.855 2.855 0 0 1-2.857 2.857 2.855 2.855 0 0 1-2.857-2.857V20a2.855 2.855 0 0 1 2.857-2.857zm11.429 0A2.855 2.855 0 0 1 120 20v5.714a2.855 2.855 0 0 1-2.857 2.857 2.855 2.855 0 0 1-2.857-2.857V20a2.855 2.855 0 0 1 2.857-2.857zm11.428 0A2.855 2.855 0 0 1 131.43 20v5.714a2.855 2.855 0 0 1-2.858 2.857 2.855 2.855 0 0 1-2.857-2.857V20a2.855 2.855 0 0 1 2.857-2.857zm11.429 0A2.855 2.855 0 0 1 142.857 20v5.714A2.855 2.855 0 0 1 140 28.571a2.855 2.855 0 0 1-2.857-2.857V20A2.855 2.855 0 0 1 140 17.143zM5.714 22.857A5.711 5.711 0 0 0 0 28.571a5.711 5.711 0 0 0 5.714 5.715h17.143a5.711 5.711 0 0 0 5.714-5.715 5.711 5.711 0 0 0-5.714-5.714zm0 17.143A5.711 5.711 0 0 0 0 45.714a5.711 5.711 0 0 0 5.714 5.715h17.143a5.711 5.711 0 0 0 5.714-5.715A5.711 5.711 0 0 0 22.857 40zm90.748 5.714c-1.02 2.942-3.175 5.425-6.116 6.73L62.857 64.665l-17.143-7.623V80H160V45.714zm9.252 11.429A2.855 2.855 0 0 1 108.571 60v5.714a2.855 2.855 0 0 1-2.857 2.857 2.855 2.855 0 0 1-2.857-2.857V60a2.855 2.855 0 0 1 2.857-2.857zm11.429 0A2.855 2.855 0 0 1 120 60v5.714a2.855 2.855 0 0 1-2.857 2.857 2.855 2.855 0 0 1-2.857-2.857V60a2.855 2.855 0 0 1 2.857-2.857zm11.428 0A2.855 2.855 0 0 1 131.43 60v5.714a2.855 2.855 0 0 1-2.858 2.857 2.855 2.855 0 0 1-2.857-2.857V60a2.855 2.855 0 0 1 2.857-2.857zm11.429 0A2.855 2.855 0 0 1 142.857 60v5.714A2.855 2.855 0 0 1 140 68.571a2.855 2.855 0 0 1-2.857-2.857V60A2.855 2.855 0 0 1 140 57.143zM45.714 85.714V120H160V85.714zm60 11.429a2.855 2.855 0 0 1 2.857 2.857v5.714a2.855 2.855 0 0 1-2.857 2.857 2.855 2.855 0 0 1-2.857-2.857V100a2.855 2.855 0 0 1 2.857-2.857zm11.429 0A2.855 2.855 0 0 1 120 100v5.714a2.855 2.855 0 0 1-2.857 2.857 2.855 2.855 0 0 1-2.857-2.857V100a2.855 2.855 0 0 1 2.857-2.857zm11.428 0A2.855 2.855 0 0 1 131.43 100v5.714a2.855 2.855 0 0 1-2.858 2.857 2.855 2.855 0 0 1-2.857-2.857V100a2.855 2.855 0 0 1 2.857-2.857zm11.429 0a2.855 2.855 0 0 1 2.857 2.857v5.714a2.855 2.855 0 0 1-2.857 2.857 2.855 2.855 0 0 1-2.857-2.857V100A2.855 2.855 0 0 1 140 97.143zm-94.286 28.571v17.143c0 9.453 7.69 17.143 17.143 17.143h80c9.453 0 17.143-7.69 17.143-17.143v-17.143zm60 11.429a2.855 2.855 0 0 1 2.857 2.857v5.714a2.855 2.855 0 0 1-2.857 2.857 2.855 2.855 0 0 1-2.857-2.857V140a2.855 2.855 0 0 1 2.857-2.857zm11.429 0A2.855 2.855 0 0 1 120 140v5.714a2.855 2.855 0 0 1-2.857 2.857 2.855 2.855 0 0 1-2.857-2.857V140a2.855 2.855 0 0 1 2.857-2.857zm11.428 0A2.855 2.855 0 0 1 131.43 140v5.714a2.855 2.855 0 0 1-2.858 2.857 2.855 2.855 0 0 1-2.857-2.857V140a2.855 2.855 0 0 1 2.857-2.857zm11.429 0a2.855 2.855 0 0 1 2.857 2.857v5.714a2.855 2.855 0 0 1-2.857 2.857 2.855 2.855 0 0 1-2.857-2.857V140a2.855 2.855 0 0 1 2.857-2.857z" fill="#ffffff" font-family="none" font-weight="none" font-size="none" text-anchor="none"/></svg>